<svg width="202" height="45" viewBox="0 0 202 45" fill="none" xmlns="http://www.w3.org/2000/svg">
<path d="M22.7775 43.5549C34.2526 43.5549 43.555 34.2525 43.555 22.7774C43.555 11.3023 34.2526 1.99994 22.7775 1.99994C11.3024 1.99994 2 11.3023 2 22.7774C2 34.2525 11.3024 43.5549 22.7775 43.5549Z" stroke="white" stroke-width="2.28479" stroke-miterlimit="10"/>
<path d="M22.7626 24.331C23.53 24.331 24.1521 23.7089 24.1521 22.9415C24.1521 22.1741 23.53 21.5519 22.7626 21.5519C21.9952 21.5519 21.373 22.1741 21.373 22.9415C21.373 23.7089 21.9952 24.331 22.7626 24.331Z" fill="white"/>
<g clipPath="url(#clip0_0_149)">
<path d="M60.7129 30.4669V14.8161H65.9247C68.0114 14.8161 69.9758 15.6309 71.4506 17.1074C72.9274 18.5859 73.7393 20.5504 73.7393 22.6415C73.7393 24.7326 72.9254 26.6972 71.4506 28.1757C69.9737 29.6542 68.0114 30.4669 65.9247 30.4669H60.7129ZM65.9247 28.5106C67.4912 28.5106 68.962 27.9 70.0696 26.7911C71.1772 25.6822 71.7871 24.2078 71.7871 22.6415C71.7871 21.0752 71.1772 19.6008 70.0696 18.4919C68.962 17.383 67.4892 16.7725 65.9247 16.7725H62.667V28.5106H65.9247Z" fill="white"/>
<path d="M96.7443 28.7475C95.6367 27.6386 95.0268 26.1642 95.0268 24.5979V14.8161H96.981V24.5979C96.981 25.6434 97.3869 26.6257 98.1253 27.3649C98.8637 28.1042 99.8449 28.5106 100.889 28.5106C101.934 28.5106 102.915 28.1042 103.653 27.3649C104.392 26.6257 104.798 25.6434 104.798 24.5979V14.8161H106.752V24.5979C106.752 26.1662 106.142 27.6386 105.034 28.7475C103.927 29.8563 102.454 30.4669 100.889 30.4669C99.3247 30.4669 97.852 29.8563 96.7443 28.7475Z" fill="white"/>
<path d="M139.545 28.3292C138.028 29.8485 136.01 30.6858 133.864 30.6858C131.719 30.6858 129.703 29.8485 128.183 28.3292C126.666 26.8098 125.83 24.7902 125.83 22.6439C125.83 20.4976 126.666 18.4759 128.183 16.9566C129.701 15.4372 131.719 14.6 133.864 14.6C136.01 14.6 138.026 15.4372 139.545 16.9566L138.164 18.3391C137.016 17.1894 135.49 16.5563 133.864 16.5563C132.239 16.5563 130.715 17.1894 129.564 18.3391C128.416 19.4888 127.784 21.0163 127.784 22.6439C127.784 24.2715 128.416 25.7969 129.564 26.9487C130.713 28.0984 132.239 28.7315 133.864 28.7315C135.49 28.7315 137.014 28.0984 138.164 26.9487L139.545 28.3312V28.3292Z" fill="white"/>
<path d="M202.001 16.7725H197.115V30.4669H195.161V16.7725H190.276V14.8161H202.001V16.7725Z" fill="white"/>
<path d="M156.092 30.5755L163.026 14.7103H165.006L171.94 30.5755H156.092ZM168.988 28.7703L164.015 17.3916L159.044 28.7703H168.988Z" fill="white"/>
</g>
<defs>
<clipPath id="clip0_0_149">
<rect width="141.287" height="16.0858" fill="white" transform="translate(60.7119 14.6003)"/>
</clipPath>
</defs>
</svg>
